<?xml version="1.0" encoding="UTF-8" standalone="no"?>
<!DOCTYPE svg PUBLIC "-//W3C//DTD SVG 1.1//EN" "http://www.w3.org/Graphics/SVG/1.1/DTD/svg11.dtd">
<svg viewBox="0 0 148.11 148.11">
    <path d="M14.22,30.41a74.1,74.1,0,0,0,0,87.3A58.27,58.27,0,0,0,33.84,74.06,58.25,58.25,0,0,0,14.22,30.41Z" style="fill:#782b81"></path>
    <path d="M30.41,14.22A58.2,58.2,0,0,0,74.06,33.84,58.19,58.19,0,0,0,117.7,14.22a74.09,74.09,0,0,0-87.29,0Z" style="fill:#782b81"></path>
    <path d="M133.89,30.41a58.39,58.39,0,0,0,0,87.3,74.1,74.1,0,0,0,0-87.3Z" style="fill:#782b81"></path>
    <path d="M117.7,133.89a58.35,58.35,0,0,0-87.29,0,74.09,74.09,0,0,0,87.29,0Z" style="fill:#782b81"></path>
</svg> 
